<svg width="64" height="64" viewBox="0 0 64 64" fill="none" xmlns="http://www.w3.org/2000/svg">
<g opacity="0.06">
<rect width="64" height="64" rx="16" fill="#1565D8"/>
</g>
<path fill-rule="evenodd" clip-rule="evenodd" d="M25.5337 26.3137C27.2707 23.8236 28.355 20.9663 28.79 17.7315C28.8314 17.4233 29.0476 17.1671 29.3444 17.0744C32.3358 16.1406 34.0365 17.6245 34.0084 21.0083C34.0029 21.6652 33.9729 22.249 33.9089 23.1419C33.766 25.1364 33.7774 25.6807 33.9987 26.0469C34.2115 26.399 34.9023 26.5192 36.5361 26.2063C37.0516 26.1075 37.5688 25.9956 38.1416 25.8612C38.3944 25.8018 40.2157 25.3535 40.6813 25.2521C41.5693 25.0587 42.2065 24.9768 42.7669 25.0115C44.2848 25.1054 45.0903 26.0913 45.2295 27.9802C45.4746 31.3066 44.7172 37.9881 43.9616 40.4492C43.1895 42.9641 41.843 43.9133 38.6108 43.9707C36.5327 44.0075 33.3366 44.0075 29.0074 43.9706C27.9023 43.9447 26.9008 43.7288 26.01 43.3252C26.26 42.8029 26.4001 42.2178 26.4001 41.6V28.8C26.4001 27.8604 26.0761 26.9964 25.5337 26.3137Z" fill="#1565D8"/>
<path opacity="0.3" fill-rule="evenodd" clip-rule="evenodd" d="M20.7999 26.4C19.4744 26.4 18.3999 27.4745 18.3999 28.8V41.6C18.3999 42.9255 19.4744 44 20.7999 44H22.3999C23.7254 44 24.7999 42.9255 24.7999 41.6V28.8C24.7999 27.4745 23.7254 26.4 22.3999 26.4H20.7999Z" fill="#1565D8"/>
</svg>
