<svg width="64" height="64" viewBox="0 0 64 64" fill="none" xmlns="http://www.w3.org/2000/svg">
<g opacity="0.06">
<rect width="64" height="64" rx="16" fill="#1565D8"/>
</g>
<path fill-rule="evenodd" clip-rule="evenodd" d="M31.2 34.5878H29.6088C29.167 34.5878 28.8088 34.9459 28.8088 35.3878C28.8088 35.8296 29.167 36.1878 29.6088 36.1878H34.4051C34.847 36.1878 35.2051 35.8296 35.2051 35.3878C35.2051 34.9459 34.847 34.5878 34.4051 34.5878H32.8V24.4C32.8 23.6998 31.9641 23.3375 31.4531 23.8161L29.4531 25.6895C29.1306 25.9915 29.114 26.4978 29.4161 26.8202C29.7181 27.1427 30.2244 27.1593 30.5468 26.8572L31.2 26.2455V34.5878ZM32 42.6C24.9307 42.6 19.2 36.8692 19.2 29.8C19.2 22.7308 24.9307 17 32 17C39.0692 17 44.8 22.7308 44.8 29.8C44.8 36.8692 39.0692 42.6 32 42.6Z" fill="#1565D8"/>
<path opacity="0.3" fill-rule="evenodd" clip-rule="evenodd" d="M46.6066 43.7886L43.5197 38.4419C41.2408 41.4747 37.7923 43.5783 33.8439 44.083L36.9071 49.3886C37.1793 49.8601 37.8329 49.9279 38.196 49.5221L41.3901 45.9534L46.0778 44.9716C46.6107 44.86 46.8788 44.2601 46.6066 43.7886ZM27.3385 49.3642L30.3726 44.109C26.4096 43.6632 22.9334 41.609 20.6122 38.6145L17.639 43.7642C17.3668 44.2358 17.6349 44.8356 18.1678 44.9472L22.8555 45.9291L26.0496 49.4978C26.4127 49.9035 27.0663 49.8358 27.3385 49.3642Z" fill="#1565D8"/>
</svg>
