<svg width="64" height="64" viewBox="0 0 64 64" fill="none" xmlns="http://www.w3.org/2000/svg">
<g opacity="0.06">
<rect width="64" height="64" rx="16" fill="#1565D8"/>
</g>
<path fill-rule="evenodd" clip-rule="evenodd" d="M48.7999 37.0741C48.1508 36.2719 47.3328 35.612 46.4 35.1484V32C46.4 23.8262 40.1738 17.6484 32 17.6484C23.8261 17.6484 17.6 23.8262 17.6 32V35.1484C16.6671 35.612 15.8491 36.2719 15.2 37.0741V32C15.2 22.5007 22.5007 15.2484 32 15.2484C41.4992 15.2484 48.7999 22.5007 48.7999 32V37.0741ZM20.0707 36.047C20.0243 36.2909 20 36.5426 20 36.8V46.4C20 46.6574 20.0243 46.9091 20.0707 47.1529C17.3225 46.7955 15.2 44.4456 15.2 41.6C15.2 38.7543 17.3225 36.4044 20.0707 36.047ZM44 46.4C44 46.6574 43.9756 46.9091 43.9292 47.1529C46.6774 46.7955 48.8 44.4456 48.8 41.6C48.8 38.7543 46.6774 36.4044 43.9292 36.047C43.9756 36.2909 44 36.5426 44 36.8V46.4Z" fill="#1565D8"/>
<path opacity="0.3" fill-rule="evenodd" clip-rule="evenodd" d="M25.6001 34.4H24.0001C22.6746 34.4 21.6001 35.4745 21.6001 36.8V46.4C21.6001 47.7255 22.6746 48.8 24.0001 48.8H25.6001C26.9256 48.8 28.0001 47.7255 28.0001 46.4V36.8C28.0001 35.4745 26.9256 34.4 25.6001 34.4ZM40.0001 34.4H38.4001C37.0746 34.4 36.0001 35.4745 36.0001 36.8V46.4C36.0001 47.7255 37.0746 48.8 38.4001 48.8H40.0001C41.3256 48.8 42.4001 47.7255 42.4001 46.4V36.8C42.4001 35.4745 41.3256 34.4 40.0001 34.4Z" fill="#1565D8"/>
</svg>
